<svg width="24" height="25" viewBox="0 0 24 25" fill="none" xmlns="http://www.w3.org/2000/svg">
<g clip-path="url(#clip0_3660_39913)">
<path d="M23.52 12.7658C23.52 11.7792 23.44 11.0592 23.2667 10.3125H12V14.7658H18.6133C18.48 15.8725 17.76 17.5392 16.16 18.6591L16.1376 18.8082L19.6999 21.5679L19.9467 21.5925C22.2133 19.4992 23.52 16.4191 23.52 12.7658Z" fill="#4285F4"/>
<path d="M12.0001 24.4997C15.2401 24.4997 17.96 23.433 19.9468 21.5931L16.1601 18.6597C15.1468 19.3663 13.7867 19.8597 12.0001 19.8597C8.82677 19.8597 6.13345 17.7664 5.17335 14.873L5.03262 14.885L1.32847 17.7517L1.28003 17.8863C3.25335 21.8063 7.3067 24.4997 12.0001 24.4997Z" fill="#34A853"/>
<path d="M5.17329 14.8731C4.91997 14.1265 4.77335 13.3264 4.77335 12.4998C4.77335 11.6731 4.91997 10.8731 5.15997 10.1264L5.15326 9.96742L1.40268 7.05469L1.27997 7.11306C0.466673 8.73975 0 10.5665 0 12.4998C0 14.4331 0.466673 16.2597 1.27997 17.8864L5.17329 14.8731Z" fill="#FBBC05"/>
<path d="M12.0001 5.13998C14.2534 5.13998 15.7734 6.11331 16.6401 6.9267L20.0267 3.62001C17.9468 1.68667 15.2401 0.5 12.0001 0.5C7.3067 0.5 3.25335 3.19332 1.28003 7.1133L5.16002 10.1267C6.13345 7.23335 8.82677 5.13998 12.0001 5.13998Z" fill="#EB4335"/>
</g>
<defs>
<clipPath id="clip0_3660_39913">
<rect width="24" height="24" fill="white" transform="translate(0 0.5)"/>
</clipPath>
</defs>
</svg>
