<?xml version="1.0" encoding="utf-8"?>
<!-- Generator: Adobe Illustrator 22.1.0, SVG Export Plug-In . SVG Version: 6.00 Build 0)  -->
<svg version="1.1" id="Layer_1" xmlns="http://www.w3.org/2000/svg" xmlns:xlink="http://www.w3.org/1999/xlink" x="0px" y="0px"
	 viewBox="0 0 600 600" style="enable-background:new 0 0 600 600;" xml:space="preserve">
<style type="text/css">
	.st0{fill:#FFFFFF;}
</style>
<circle cx="300" cy="300" r="271.5"/>
<g>
	<path class="st0" d="M300.1,442.6c-42,0-83.9,0.1-125.9,0c-18.4,0-33.5-12-37.6-29.6c-0.7-3.2-1.1-6.6-1.1-9.8
		c-0.1-68.8-0.1-137.7,0-206.5c0-22.3,16.8-39.1,39.1-39.1c83.8,0,167.7,0,251.5,0c21.5,0,38.5,16.9,38.5,38.3
		c0.1,69.4,0.1,138.8,0,208.3c0,18.4-12,33.4-29.7,37.5c-3.8,0.9-7.9,1.1-11.9,1.1C382,442.6,341,442.6,300.1,442.6z M157.1,223.2
		c0,1.4,0,2.4,0,3.5c0,58.5,0,117.1,0,175.6c0,12.1,6.5,18.7,18.6,18.7c83,0,166,0,249,0c11.4,0,18.2-6.8,18.2-18
		c0-58.7,0-117.3,0-176c0-1.2,0-2.4,0-3.8C347.5,223.2,252.5,223.2,157.1,223.2z M332.9,201.3c10.5,0,11.1-0.7,11.2-11.3
		c0-10.2-0.8-11-11.1-11c-10.5,0-11.1,0.7-11.2,11.3C321.8,200.5,322.6,201.4,332.9,201.3z M421,179.1c-10.6,0-11.3,0.7-11.3,11.1
		c0,10.4,0.7,11.1,10.9,11.1c10.7,0,11.4-0.7,11.3-11.4C431.9,179.8,431.1,179.1,421,179.1z M388,190.3c0-10.5-0.7-11.3-11.2-11.3
		c-10.3,0-11.1,0.8-11.1,11c0,10.5,0.7,11.2,11.2,11.2C387.2,201.3,388,200.6,388,190.3z"/>
</g>
</svg>
