<?xml version="1.0" encoding="utf-8"?>
<!-- Generator: Adobe Illustrator 22.1.0, SVG Export Plug-In . SVG Version: 6.00 Build 0)  -->
<svg version="1.1" id="Layer_1" xmlns="http://www.w3.org/2000/svg" xmlns:xlink="http://www.w3.org/1999/xlink" x="0px" y="0px"
	 viewBox="0 0 600 600" style="enable-background:new 0 0 600 600;" xml:space="preserve">
<style type="text/css">
	.st0{fill:#FFFFFF;}
</style>
<circle cx="300" cy="300" r="271.5"/>
<g>
	<path class="st0" d="M229.5,443.2c-3.2-0.8-6.5-1.4-9.7-2.5c-18.5-6.4-29.9-22.8-29.9-43.1c0-45.1,0-90.2,0-135.4
		c0-20.1,0-40.3,0-60.4c0.1-19.9,11.5-36.4,29.8-42.5c4.7-1.6,9.8-2.4,14.8-2.4c28.7-0.2,57.4-0.1,86.1-0.1c7.8,0,14.1,3.6,20,8.3
		c3.4,2.7,6.8,5.6,9.9,8.7c15.5,15.5,31,31,46.3,46.6c5,5.1,9.7,10.7,11.9,17.7c0.9,2.8,1.4,5.8,1.4,8.8c0.1,50.2,0,100.5,0.1,150.7
		c0.1,25.4-18.5,42.8-38.4,45c-0.4,0-0.8,0.3-1.3,0.5C323.5,443.2,276.5,443.2,229.5,443.2z M211.7,299.9c0,32.2,0,64.3,0,96.5
		c0,2.7,0.1,5.5,0.8,8c2.8,10.6,11.1,16.8,22.5,16.8c43.3,0.1,86.5,0,129.8,0c5.3,0,10.3-1.3,14.6-4.7c6.4-5,8.8-11.7,8.8-19.6
		c0-46.3,0-92.7,0-139c0-1.1-0.2-2.2-0.2-3.3c-0.2-4.7-3-7.3-7.2-8.5c-2.6-0.7-5.3-1.1-8-1.1c-12.8-0.2-25.5-0.3-38.3-0.3
		c-4.1,0-8.1-0.8-10.2-4.6c-1.4-2.5-2.1-5.6-2.2-8.4c-0.3-12.4-0.1-24.8-0.3-37.2c-0.1-3.3-0.5-6.7-1.5-9.9
		c-1.2-4.2-4.3-6.1-8.6-6.1c-25.4,0-50.7,0-76.1,0c-7.9,0-14.6,2.6-19.5,9c-3.5,4.6-4.5,9.9-4.5,15.5
		C211.7,235.4,211.7,267.7,211.7,299.9z"/>
</g>
</svg>
