<svg xmlns="http://www.w3.org/2000/svg" viewBox="0 0 665.25 302.2"><title>mightily-logo-cropped</title><g id="Layer_2" data-name="Layer 2"><g id="Layer_1-2" data-name="Layer 1"><path d="M246.28,95.1c7.8,4.1,13.2-1.1,17.3-9s5.3-15.3-2.5-19.4a43.2,43.2,0,0,0-9.1-3.5,77.1,77.1,0,0,0-8.3,12.4C239.88,83.7,238.48,91,246.28,95.1Z"/><path d="M230.88,66.3c0-20.1-17.2-26.9-17.2-26.9C205.28,57,126,177.8,126,177.8c0-8.7,36.8-87.4,36.8-106.7,0-20.9-17.2-24-17.2-24-14.5,23.8-77.8,122.8-77.8,122.8,0-5.5,30.1-61.2,30.1-81.9C97.88,73.9,81,60.9,75,60.9c-12.1,0-43.3,53-62.9,53-9,0-11.3-6.5-11.3-6.5s-6.8,29,19.8,29c23,0,56.2-58.6,60.4-58.6,3.7,0-51.3,101.3-51.3,133.3,0,11.1,9.7,27.2,26.8,27.2,0,0-1.4-.9-1.4-8.3,0-27.7,65.1-125.6,65.1-125.6s-28.4,74.8-28.4,97.2c0,14.9,13.5,28.5,28.6,28.5a18.36,18.36,0,0,1-.9-5.6c0-29,70.4-125.9,70.4-125.9s-44.7,89-44.7,116.8c0,18.4,12.7,29.9,24.7,29.9,2.7,0,6.5-1.9,6.5-1.9s-3.8-3.9-3.8-11.8C172.58,203.5,230.88,88.8,230.88,66.3Z"/><path d="M651.08,139.8c-8,0-27,8.8-45.3,41.8,21.6-61.7,47.4-99.1,47.4-103.4,0-8.5-10.7-14.8-15.4-14.8-.1.1-4.3,7.4-10.4,18.9C623,90,589.58,148,584.58,148c-4.2,0,21-58.9,21-66,0-8-11.3-15.3-15.5-15.3-.1,0-52.2,80.4-60.3,80.4-2.1,0,.3-9.4,5.1-23.1,2.2-2.9,61.4-80.1,61.4-105.9,0-5.2-12.9-18.1-18.2-18.1-14.4,0-40,42-55.8,84.8-3.5,5.9-35.7,60.5-37.3,60.5-2.7,0,19.8-53.9,19.8-60.9,0-9.7-13.8-15.5-14.4-15.8,0,0-58.9,85.1-58.5,83.4,4.8-20.5,26.9-65.1,40.5-91.9,12.4,0,25.5.2,38.1.2,5.8,0,10-3.9,13.3-10.3,4.1-7.8,5.3-15.3-2.5-19.4a43.2,43.2,0,0,0-9.1-3.5s-11.3,8.5-11.3,20.4c-6.3,0-13.8-.4-21.7-.9,2.6-5,4.1-8,4.1-8.2,0-3-10.9-19.8-14.7-19.8-2.3,0-8.5,10.9-16.2,26.6-29.2-.9-56.6,1.6-56.6,21.6,0,13.6,17,12.5,17,12.5s-1-1-1-3.6c0-9.6,13.7-13.4,33.3-14.9-3.7,8.2-7.6,17-11.3,25.9-14.5,23.3-46.8,72-48.4,72s23.5-53,23.5-57.9c0-4.7-9.5-18.3-11.3-18.3-15.4,0-53.7,62.2-53.7,62.2,26.3-61,48.9-94.2,48.9-99.2,0-5.3-8.9-19.3-13.6-19.3-9.9,0-59.4,120.5-59.4,140.2,0,4.6,9,17.4,11.8,17.4,0,0,30.9-54.9,53.8-81.9,0,0-20.4,47.7-20.4,60,0,4.7,9.1,15.3,15.6,15.3,4.6,0,22.8-28.2,38.2-52.8-5.7,15.8-9.6,28.6-9.6,33.9,0,4.3,10.4,12.6,15,12.6,7.4,0,50.5-66.2,50.5-66.2s-14.9,34.9-14.9,42.4c0,6.6,13.3,16.9,18.8,16.9,6.8,0,21.8-24.8,33.8-46.7-2.4,10.5-3.8,20.4-3.8,28.8,0,6.4,14.6,17.5,18.9,17.5,12.2,0,45.3-55,45.3-55s-11.5,28.5-11.5,36.4c0,5.5,6.8,18.4,17.8,18.4,3.8,0,11.9-10.6,20.7-24.1-9.5,22.5-17.8,46.2-20.5,65.5-1.5,11,14.4,15.4,14.4,15.4,22.1-39.6,51.9-63.1,71.5-63.1C665.48,157.1,665.38,139.8,651.08,139.8ZM587.58,19.3c6.9,0-22.4,47.2-42.4,78.2C560.08,61.6,580.78,19.3,587.58,19.3Z"/><path d="M474.38,181.9c-45.1,0-86.3,7.4-121,18.8-6.2-5.1-15.7-8.2-29.3-8.2-13.9,0-29.2,3.9-42.4,8.5l8.3-11.9c16.4-12,31.4-44,31.4-68.3,0-9.2-3.9-14.9-8.6-18.5,2.2-23.2,26.8-23.5,26.8-23.5s-4.5-13.2-18-13.2c-17.2,0-26.2,12.5-26.2,30.9l.2.1c1.4.8,8.8,5.5,8.8,18.1,0,16.9-24.1,66.4-31.1,66.4-8.2,0,6.2-51.2,26-69.3,0,0-8.3-10.5-15.1-10.5-7.6,0-20.1,14.1-28,34.3-12.4,20.3-30.4,52.6-32.1,52.6-3.7,0,23.4-55.6,23.4-62.5,0-9.7-17.1-15.5-17.6-15.8,0,0-29.5,61.4-29.5,79.8,0,6.6,13.3,16.9,18.8,16.9,4,0,18-23.1,30.1-44.2a92.32,92.32,0,0,0-.7,11.8c0,7.9,11.8,15.3,21.2,18.2l-21.7,22.9s4.8,14.1,13.5,14.1c10.7,0,32.2-23.7,63-23.7a38.49,38.49,0,0,1,10.5,1.3c-56.7,22.2-92,54.4-92,77.3,0,8.1,8.8,17.9,21,17.9,52.4,0,96.6-47.2,98.1-79.8,33-9.8,73.3-16.8,120.7-16.8,38.4,0,34.5,12.6,34.5,13.5,0,0,10.9-2.5,10.9-13.4C528.28,194,513.48,181.9,474.38,181.9ZM256,286.7c-9.1,0,20.6-33.4,85.8-57.3C330.58,253.3,288.38,286.7,256,286.7Z"/></g></g></svg>