<?xml version="1.0" standalone="no"?>
<!DOCTYPE svg PUBLIC "-//W3C//DTD SVG 20010904//EN"
 "http://www.w3.org/TR/2001/REC-SVG-20010904/DTD/svg10.dtd">
<svg version="1.0" xmlns="http://www.w3.org/2000/svg"
 width="260.000000pt" height="260.000000pt" viewBox="0 0 260.000000 260.000000"
 preserveAspectRatio="xMidYMid meet">
<metadata>
Created by potrace 1.11, written by Peter Selinger 2001-2013
</metadata>
<g transform="translate(0.000000,260.000000) scale(0.100000,-0.100000)"
fill="#000000" stroke="none">
<path d="M1066 2554 c-165 -30 -349 -107 -496 -208 -98 -67 -252 -221 -318
-318 -103 -152 -176 -329 -207 -502 -19 -114 -19 -325 1 -441 84 -488 456
-889 936 -1009 120 -30 172 -36 327 -37 602 -1 1131 447 1236 1048 15 87 20
287 10 378 -9 77 -32 176 -61 257 -154 428 -512 739 -954 828 -123 24 -351 26
-474 4z m454 -134 c36 -7 72 -17 81 -21 15 -8 17 -61 15 -606 l-1 -598 -150
-2 c-82 -1 -169 -2 -192 -2 l-43 -1 0 -504 0 -505 -37 5 c-56 8 -143 24 -183
35 l-35 9 0 1082 0 1082 45 13 c60 18 89 22 195 29 50 4 91 7 92 8 5 4 153
-13 213 -24z m-623 -1105 c0 -580 -3 -1055 -7 -1055 -18 0 -130 55 -189 94
l-66 43 1 396 1 397 -26 1 c-50 2 -176 -3 -180 -7 -8 -8 22 -121 54 -200 l32
-81 0 -201 c0 -129 -3 -199 -10 -195 -5 3 -26 24 -46 46 -20 22 -41 45 -46 51
-6 6 -31 43 -57 81 -133 202 -192 401 -190 641 1 217 68 432 194 624 53 81
192 222 279 283 56 39 232 136 250 137 3 0 6 -475 6 -1055z m980 967 l63 -37
0 -396 0 -396 109 0 108 0 -9 41 c-14 64 -39 137 -62 181 -19 36 -21 61 -26
253 -3 116 -2 212 1 212 13 0 129 -131 169 -190 299 -441 250 -1034 -118
-1421 l-52 -54 0 207 c0 207 0 208 29 270 30 66 56 150 64 206 5 29 3 32 -21
33 -27 1 -142 1 -174 0 -17 -1 -18 -27 -18 -405 l0 -405 -59 -35 c-74 -45
-168 -89 -178 -83 -6 4 -10 2093 -4 2104 3 6 120 -51 178 -85z"/>
<path d="M1230 1820 l0 -367 74 0 73 1 0 362 0 363 -27 6 c-15 3 -48 5 -74 4
l-46 -3 0 -366z"/>
<path d="M592 1834 c-70 -95 -138 -247 -156 -351 l-5 -32 103 2 103 1 -1 213
c0 117 -2 213 -5 213 -4 -1 -21 -21 -39 -46z"/>
</g>
</svg>
